<mxfile host="app.diagrams.net" agent="Mozilla/5.0 (Windows NT 10.0; Win64; x64) AppleWebKit/537.36 (KHTML, like Gecko) Chrome/139.0.0.0 Safari/537.36" version="28.1.2">
  <diagram name="Página-1" id="vgWBF7y3S_AqU_ZdzxeC">
    <mxGraphModel dx="2048" dy="1070" grid="1" gridSize="10" guides="1" tooltips="1" connect="1" arrows="1" fold="1" page="1" pageScale="1" pageWidth="827" pageHeight="1169" math="0" shadow="0">
      <root>
        <mxCell id="0" />
        <mxCell id="1" parent="0" />
        <mxCell id="WcZ4w9sOskMRUdStCML9-1" value="&lt;font style=&quot;font-size: 22px;&quot;&gt;EXERCÍCIO 5&lt;/font&gt;" style="text;align=center;fontStyle=1;verticalAlign=middle;spacingLeft=3;spacingRight=3;strokeColor=none;rotatable=0;points=[[0,0.5],[1,0.5]];portConstraint=eastwest;html=1;" parent="1" vertex="1">
          <mxGeometry x="374" y="20" width="80" height="26" as="geometry" />
        </mxCell>
        <mxCell id="WcZ4w9sOskMRUdStCML9-13" value="&lt;span style=&quot;color: rgb(0, 0, 0); font-family: Helvetica; font-style: normal; font-variant-ligatures: normal; font-variant-caps: normal; font-weight: 700; letter-spacing: normal; orphans: 2; text-align: center; text-indent: 0px; text-transform: none; widows: 2; word-spacing: 0px; -webkit-text-stroke-width: 0px; white-space: nowrap; background-color: rgb(236, 236, 236); text-decoration-thickness: initial; text-decoration-style: initial; text-decoration-color: initial; float: none; display: inline !important;&quot;&gt;&lt;font style=&quot;font-size: 20px;&quot;&gt;Venda de passagens - Diagrama de Sequência&lt;/font&gt;&lt;/span&gt;" style="text;whiteSpace=wrap;html=1;" parent="1" vertex="1">
          <mxGeometry x="220" y="380" width="300" height="40" as="geometry" />
        </mxCell>
        <mxCell id="WcZ4w9sOskMRUdStCML9-14" value="Cliente" style="shape=umlActor;verticalLabelPosition=bottom;verticalAlign=top;html=1;" parent="1" vertex="1">
          <mxGeometry x="100" y="460" width="30" height="60" as="geometry" />
        </mxCell>
        <mxCell id="WcZ4w9sOskMRUdStCML9-15" value="&lt;u&gt;:Portal&lt;/u&gt;" style="html=1;whiteSpace=wrap;" parent="1" vertex="1">
          <mxGeometry x="250" y="470" width="110" height="50" as="geometry" />
        </mxCell>
        <mxCell id="WcZ4w9sOskMRUdStCML9-16" value="&lt;u&gt;:Sistema pagamento&lt;/u&gt;" style="html=1;whiteSpace=wrap;" parent="1" vertex="1">
          <mxGeometry x="620" y="470" width="140" height="50" as="geometry" />
        </mxCell>
        <mxCell id="WcZ4w9sOskMRUdStCML9-17" value="" style="html=1;points=[[0,0,0,0,5],[0,1,0,0,-5],[1,0,0,0,5],[1,1,0,0,-5]];perimeter=orthogonalPerimeter;outlineConnect=0;targetShapes=umlLifeline;portConstraint=eastwest;newEdgeStyle={&quot;curved&quot;:0,&quot;rounded&quot;:0};" parent="1" vertex="1">
          <mxGeometry x="107.5" y="560" width="10" height="590" as="geometry" />
        </mxCell>
        <mxCell id="WcZ4w9sOskMRUdStCML9-19" value="" style="html=1;points=[[0,0,0,0,5],[0,1,0,0,-5],[1,0,0,0,5],[1,1,0,0,-5]];perimeter=orthogonalPerimeter;outlineConnect=0;targetShapes=umlLifeline;portConstraint=eastwest;newEdgeStyle={&quot;curved&quot;:0,&quot;rounded&quot;:0};" parent="1" vertex="1">
          <mxGeometry x="297.5" y="570" width="10" height="580" as="geometry" />
        </mxCell>
        <mxCell id="WcZ4w9sOskMRUdStCML9-20" value="" style="html=1;points=[[0,0,0,0,5],[0,1,0,0,-5],[1,0,0,0,5],[1,1,0,0,-5]];perimeter=orthogonalPerimeter;outlineConnect=0;targetShapes=umlLifeline;portConstraint=eastwest;newEdgeStyle={&quot;curved&quot;:0,&quot;rounded&quot;:0};" parent="1" vertex="1">
          <mxGeometry x="682.5" y="560" width="10" height="580" as="geometry" />
        </mxCell>
        <mxCell id="WcZ4w9sOskMRUdStCML9-23" value="Cadastro / Acesso" style="html=1;verticalAlign=bottom;endArrow=block;curved=0;rounded=0;" parent="1" target="WcZ4w9sOskMRUdStCML9-19" edge="1">
          <mxGeometry x="0.1009" width="80" relative="1" as="geometry">
            <mxPoint x="117.5" y="590.0000000000002" as="sourcePoint" />
            <mxPoint x="287.5" y="590" as="targetPoint" />
            <mxPoint as="offset" />
          </mxGeometry>
        </mxCell>
        <mxCell id="WcZ4w9sOskMRUdStCML9-27" style="edgeStyle=orthogonalEdgeStyle;rounded=0;orthogonalLoop=1;jettySize=auto;html=1;exitX=0.5;exitY=1;exitDx=0;exitDy=0;" parent="1" edge="1">
          <mxGeometry relative="1" as="geometry">
            <mxPoint x="277.5" y="570" as="sourcePoint" />
            <mxPoint x="277.5" y="570" as="targetPoint" />
          </mxGeometry>
        </mxCell>
        <mxCell id="WcZ4w9sOskMRUdStCML9-34" value="" style="html=1;points=[[0,0,0,0,5],[0,1,0,0,-5],[1,0,0,0,5],[1,1,0,0,-5]];perimeter=orthogonalPerimeter;outlineConnect=0;targetShapes=umlLifeline;portConstraint=eastwest;newEdgeStyle={&quot;curved&quot;:0,&quot;rounded&quot;:0};" parent="1" vertex="1">
          <mxGeometry x="187.5" y="680" width="10" height="80" as="geometry" />
        </mxCell>
        <mxCell id="WcZ4w9sOskMRUdStCML9-35" value="Login Inválido" style="html=1;verticalAlign=bottom;endArrow=block;curved=0;rounded=0;entryX=0;entryY=0;entryDx=0;entryDy=5;" parent="1" target="WcZ4w9sOskMRUdStCML9-34" edge="1">
          <mxGeometry relative="1" as="geometry">
            <mxPoint x="117.5" y="685" as="sourcePoint" />
          </mxGeometry>
        </mxCell>
        <mxCell id="WcZ4w9sOskMRUdStCML9-36" value="Criar conta || Recuperar senha" style="html=1;verticalAlign=bottom;endArrow=open;dashed=1;endSize=8;curved=0;rounded=0;exitX=0;exitY=1;exitDx=0;exitDy=-5;" parent="1" source="WcZ4w9sOskMRUdStCML9-34" edge="1">
          <mxGeometry relative="1" as="geometry">
            <mxPoint x="117.5" y="755" as="targetPoint" />
          </mxGeometry>
        </mxCell>
        <mxCell id="WcZ4w9sOskMRUdStCML9-39" value="&lt;u&gt;:Seção voo&lt;/u&gt;" style="html=1;whiteSpace=wrap;" parent="1" vertex="1">
          <mxGeometry x="440" y="470" width="110" height="50" as="geometry" />
        </mxCell>
        <mxCell id="WcZ4w9sOskMRUdStCML9-40" value="" style="html=1;points=[[0,0,0,0,5],[0,1,0,0,-5],[1,0,0,0,5],[1,1,0,0,-5]];perimeter=orthogonalPerimeter;outlineConnect=0;targetShapes=umlLifeline;portConstraint=eastwest;newEdgeStyle={&quot;curved&quot;:0,&quot;rounded&quot;:0};" parent="1" vertex="1">
          <mxGeometry x="487.5" y="570" width="10" height="580" as="geometry" />
        </mxCell>
        <mxCell id="WcZ4w9sOskMRUdStCML9-41" value="Consultar voo" style="html=1;verticalAlign=bottom;endArrow=block;curved=0;rounded=0;" parent="1" edge="1">
          <mxGeometry width="80" relative="1" as="geometry">
            <mxPoint x="307.5" y="770" as="sourcePoint" />
            <mxPoint x="487.5" y="769.9999999999998" as="targetPoint" />
          </mxGeometry>
        </mxCell>
        <mxCell id="WcZ4w9sOskMRUdStCML9-47" value="" style="endArrow=block;dashed=1;endFill=0;endSize=12;html=1;rounded=0;entryX=1;entryY=0.333;entryDx=0;entryDy=0;entryPerimeter=0;" parent="1" edge="1">
          <mxGeometry width="160" relative="1" as="geometry">
            <mxPoint x="487.5" y="820.0000000000001" as="sourcePoint" />
            <mxPoint x="307.5" y="820.0000000000001" as="targetPoint" />
          </mxGeometry>
        </mxCell>
        <mxCell id="WcZ4w9sOskMRUdStCML9-48" value="&lt;span style=&quot;color: rgb(0, 0, 0); font-family: Helvetica; font-size: 11px; font-style: normal; font-variant-ligatures: normal; font-variant-caps: normal; font-weight: 400; letter-spacing: normal; orphans: 2; text-align: center; text-indent: 0px; text-transform: none; widows: 2; word-spacing: 0px; -webkit-text-stroke-width: 0px; white-space: nowrap; background-color: rgb(255, 255, 255); text-decoration-thickness: initial; text-decoration-style: initial; text-decoration-color: initial; display: inline !important; float: none;&quot;&gt;Data, horário, preço&lt;/span&gt;" style="text;whiteSpace=wrap;html=1;" parent="1" vertex="1">
          <mxGeometry x="351.5" y="800" width="100" height="20" as="geometry" />
        </mxCell>
        <mxCell id="WcZ4w9sOskMRUdStCML9-52" value="" style="html=1;points=[[0,0,0,0,5],[0,1,0,0,-5],[1,0,0,0,5],[1,1,0,0,-5]];perimeter=orthogonalPerimeter;outlineConnect=0;targetShapes=umlLifeline;portConstraint=eastwest;newEdgeStyle={&quot;curved&quot;:0,&quot;rounded&quot;:0};" parent="1" vertex="1">
          <mxGeometry x="567.5" y="1000" width="10" height="80" as="geometry" />
        </mxCell>
        <mxCell id="WcZ4w9sOskMRUdStCML9-53" value="Compra com registro" style="html=1;verticalAlign=bottom;endArrow=block;curved=0;rounded=0;entryX=0;entryY=0;entryDx=0;entryDy=5;" parent="1" target="WcZ4w9sOskMRUdStCML9-52" edge="1">
          <mxGeometry relative="1" as="geometry">
            <mxPoint x="497.5" y="1005" as="sourcePoint" />
          </mxGeometry>
        </mxCell>
        <mxCell id="WcZ4w9sOskMRUdStCML9-54" value="Confirmação de compra" style="html=1;verticalAlign=bottom;endArrow=open;dashed=1;endSize=8;curved=0;rounded=0;exitX=0;exitY=1;exitDx=0;exitDy=-5;" parent="1" source="WcZ4w9sOskMRUdStCML9-52" edge="1">
          <mxGeometry relative="1" as="geometry">
            <mxPoint x="497.5" y="1075" as="targetPoint" />
          </mxGeometry>
        </mxCell>
        <mxCell id="WcZ4w9sOskMRUdStCML9-56" value="" style="endArrow=block;dashed=1;endFill=0;endSize=12;html=1;rounded=0;" parent="1" edge="1">
          <mxGeometry width="160" relative="1" as="geometry">
            <mxPoint x="487.5" y="1110" as="sourcePoint" />
            <mxPoint x="117.5" y="1109.9999999999998" as="targetPoint" />
          </mxGeometry>
        </mxCell>
        <mxCell id="WcZ4w9sOskMRUdStCML9-57" value="&lt;span style=&quot;color: rgb(0, 0, 0); font-family: Helvetica; font-style: normal; font-variant-ligatures: normal; font-variant-caps: normal; font-weight: 400; letter-spacing: normal; orphans: 2; text-align: center; text-indent: 0px; text-transform: none; widows: 2; word-spacing: 0px; -webkit-text-stroke-width: 0px; white-space: nowrap; background-color: rgb(255, 255, 255); text-decoration-thickness: initial; text-decoration-style: initial; text-decoration-color: initial; float: none; display: inline !important;&quot;&gt;&lt;font&gt;Passagem&lt;/font&gt;&lt;/span&gt;" style="text;whiteSpace=wrap;html=1;" parent="1" vertex="1">
          <mxGeometry x="275" y="1090" width="60" height="20" as="geometry" />
        </mxCell>
        <mxCell id="kO21eSyXYx30Ie3cqeLh-5" value="" style="html=1;points=[[0,0,0,0,5],[0,1,0,0,-5],[1,0,0,0,5],[1,1,0,0,-5]];perimeter=orthogonalPerimeter;outlineConnect=0;targetShapes=umlLifeline;portConstraint=eastwest;newEdgeStyle={&quot;curved&quot;:0,&quot;rounded&quot;:0};" vertex="1" parent="1">
          <mxGeometry x="567.5" y="860" width="10" height="80" as="geometry" />
        </mxCell>
        <mxCell id="kO21eSyXYx30Ie3cqeLh-6" value="Compra sem registro" style="html=1;verticalAlign=bottom;endArrow=block;curved=0;rounded=0;entryX=0;entryY=0;entryDx=0;entryDy=5;" edge="1" target="kO21eSyXYx30Ie3cqeLh-5" parent="1">
          <mxGeometry relative="1" as="geometry">
            <mxPoint x="497.5" y="865" as="sourcePoint" />
          </mxGeometry>
        </mxCell>
        <mxCell id="kO21eSyXYx30Ie3cqeLh-7" value="Fazer Cadastro" style="html=1;verticalAlign=bottom;endArrow=open;dashed=1;endSize=8;curved=0;rounded=0;exitX=0;exitY=1;exitDx=0;exitDy=-5;" edge="1" source="kO21eSyXYx30Ie3cqeLh-5" parent="1">
          <mxGeometry relative="1" as="geometry">
            <mxPoint x="497.5" y="935" as="targetPoint" />
          </mxGeometry>
        </mxCell>
        <mxCell id="kO21eSyXYx30Ie3cqeLh-10" value="&lt;span style=&quot;color: rgb(0, 0, 0); font-family: Helvetica; font-size: 11px; font-style: normal; font-variant-ligatures: normal; font-variant-caps: normal; font-weight: 400; letter-spacing: normal; orphans: 2; text-align: center; text-indent: 0px; text-transform: none; widows: 2; word-spacing: 0px; -webkit-text-stroke-width: 0px; white-space: nowrap; background-color: rgb(255, 255, 255); text-decoration-thickness: initial; text-decoration-style: initial; text-decoration-color: initial; float: none; display: inline !important;&quot;&gt;Cadastro Efetuado&amp;nbsp;&lt;/span&gt;" style="text;whiteSpace=wrap;html=1;" vertex="1" parent="1">
          <mxGeometry x="160" y="615" width="130" height="40" as="geometry" />
        </mxCell>
        <mxCell id="kO21eSyXYx30Ie3cqeLh-11" value="" style="endArrow=block;dashed=1;endFill=0;endSize=12;html=1;rounded=0;entryX=1;entryY=0.333;entryDx=0;entryDy=0;entryPerimeter=0;" edge="1" parent="1">
          <mxGeometry width="160" relative="1" as="geometry">
            <mxPoint x="297.5" y="640" as="sourcePoint" />
            <mxPoint x="117.5" y="640" as="targetPoint" />
          </mxGeometry>
        </mxCell>
        <mxCell id="kO21eSyXYx30Ie3cqeLh-12" value="&lt;p style=&quot;margin:0px;margin-top:4px;text-align:center;&quot;&gt;&lt;b&gt;Cliente&lt;/b&gt;&lt;/p&gt;&lt;hr size=&quot;1&quot; style=&quot;border-style:solid;&quot;&gt;&lt;p style=&quot;margin:0px;margin-left:4px;&quot;&gt;+ nomeCliente: string&lt;/p&gt;&lt;p style=&quot;margin:0px;margin-left:4px;&quot;&gt;+ cpfCliente( ): string&lt;/p&gt;&lt;p style=&quot;margin:0px;margin-left:4px;&quot;&gt;+ dataNascimento: date&lt;/p&gt;&lt;p style=&quot;margin:0px;margin-left:4px;&quot;&gt;+ dadosContato: string&lt;/p&gt;&lt;p style=&quot;margin:0px;margin-left:4px;&quot;&gt;+ dadosBancario: string&lt;/p&gt;&lt;p style=&quot;margin:0px;margin-left:4px;&quot;&gt;+ passagemComprada: boolean&lt;/p&gt;&lt;hr size=&quot;1&quot; style=&quot;border-style:solid;&quot;&gt;&lt;p style=&quot;margin:0px;margin-left:4px;&quot;&gt;&lt;span style=&quot;background-color: transparent; color: light-dark(rgb(0, 0, 0), rgb(255, 255, 255));&quot;&gt;+&lt;/span&gt;&lt;span style=&quot;background-color: transparent; color: light-dark(rgb(0, 0, 0), rgb(255, 255, 255));&quot;&gt;&amp;nbsp;&lt;/span&gt;&lt;span style=&quot;background-color: transparent; color: light-dark(rgb(0, 0, 0), rgb(255, 255, 255));&quot;&gt;comprarPassagens( )&lt;/span&gt;&lt;/p&gt;&lt;p style=&quot;margin:0px;margin-left:4px;&quot;&gt;+ registrar( )&lt;/p&gt;&lt;p style=&quot;margin:0px;margin-left:4px;&quot;&gt;+ alterarDados( )&lt;/p&gt;&lt;p style=&quot;margin:0px;margin-left:4px;&quot;&gt;+ consultarPassagem( )&lt;/p&gt;" style="verticalAlign=top;align=left;overflow=fill;html=1;whiteSpace=wrap;" vertex="1" parent="1">
          <mxGeometry x="100" y="150" width="180" height="190" as="geometry" />
        </mxCell>
        <mxCell id="kO21eSyXYx30Ie3cqeLh-13" value="Viagem" style="swimlane;fontStyle=1;align=center;verticalAlign=top;childLayout=stackLayout;horizontal=1;startSize=26;horizontalStack=0;resizeParent=1;resizeParentMax=0;resizeLast=0;collapsible=1;marginBottom=0;whiteSpace=wrap;html=1;" vertex="1" parent="1">
          <mxGeometry x="560" y="150" width="160" height="124" as="geometry" />
        </mxCell>
        <mxCell id="kO21eSyXYx30Ie3cqeLh-14" value="+ destino: string&lt;div&gt;+ origem: string&lt;/div&gt;&lt;div&gt;+ precoViagem: double&lt;/div&gt;&lt;div&gt;+ partida: string&lt;/div&gt;" style="text;strokeColor=none;fillColor=none;align=left;verticalAlign=top;spacingLeft=4;spacingRight=4;overflow=hidden;rotatable=0;points=[[0,0.5],[1,0.5]];portConstraint=eastwest;whiteSpace=wrap;html=1;" vertex="1" parent="kO21eSyXYx30Ie3cqeLh-13">
          <mxGeometry y="26" width="160" height="64" as="geometry" />
        </mxCell>
        <mxCell id="kO21eSyXYx30Ie3cqeLh-15" value="" style="line;strokeWidth=1;fillColor=none;align=left;verticalAlign=middle;spacingTop=-1;spacingLeft=3;spacingRight=3;rotatable=0;labelPosition=right;points=[];portConstraint=eastwest;strokeColor=inherit;" vertex="1" parent="kO21eSyXYx30Ie3cqeLh-13">
          <mxGeometry y="90" width="160" height="8" as="geometry" />
        </mxCell>
        <mxCell id="kO21eSyXYx30Ie3cqeLh-16" value="+ consultarVoo( )&lt;div&gt;&lt;br&gt;&lt;/div&gt;" style="text;strokeColor=none;fillColor=none;align=left;verticalAlign=top;spacingLeft=4;spacingRight=4;overflow=hidden;rotatable=0;points=[[0,0.5],[1,0.5]];portConstraint=eastwest;whiteSpace=wrap;html=1;" vertex="1" parent="kO21eSyXYx30Ie3cqeLh-13">
          <mxGeometry y="98" width="160" height="26" as="geometry" />
        </mxCell>
        <mxCell id="kO21eSyXYx30Ie3cqeLh-17" value="Passagem" style="swimlane;fontStyle=1;align=center;verticalAlign=top;childLayout=stackLayout;horizontal=1;startSize=26;horizontalStack=0;resizeParent=1;resizeParentMax=0;resizeLast=0;collapsible=1;marginBottom=0;whiteSpace=wrap;html=1;" vertex="1" parent="1">
          <mxGeometry x="340" y="150" width="160" height="78" as="geometry" />
        </mxCell>
        <mxCell id="kO21eSyXYx30Ie3cqeLh-18" value="+ nomeCliente: string&lt;div&gt;+ cpfCliente: int&lt;/div&gt;&lt;div&gt;+ codigoPassagem: int&lt;/div&gt;" style="text;strokeColor=none;fillColor=none;align=left;verticalAlign=top;spacingLeft=4;spacingRight=4;overflow=hidden;rotatable=0;points=[[0,0.5],[1,0.5]];portConstraint=eastwest;whiteSpace=wrap;html=1;" vertex="1" parent="kO21eSyXYx30Ie3cqeLh-17">
          <mxGeometry y="26" width="160" height="44" as="geometry" />
        </mxCell>
        <mxCell id="kO21eSyXYx30Ie3cqeLh-19" value="" style="line;strokeWidth=1;fillColor=none;align=left;verticalAlign=middle;spacingTop=-1;spacingLeft=3;spacingRight=3;rotatable=0;labelPosition=right;points=[];portConstraint=eastwest;strokeColor=inherit;" vertex="1" parent="kO21eSyXYx30Ie3cqeLh-17">
          <mxGeometry y="70" width="160" height="8" as="geometry" />
        </mxCell>
        <mxCell id="kO21eSyXYx30Ie3cqeLh-20" value="&lt;font style=&quot;font-size: 20px;&quot;&gt;Venda de passagens - Diagrama de Classe&lt;/font&gt;" style="text;align=center;fontStyle=1;verticalAlign=middle;spacingLeft=3;spacingRight=3;strokeColor=none;rotatable=0;points=[[0,0.5],[1,0.5]];portConstraint=eastwest;html=1;" vertex="1" parent="1">
          <mxGeometry x="400" y="90" width="80" height="26" as="geometry" />
        </mxCell>
      </root>
    </mxGraphModel>
  </diagram>
</mxfile>
